<svg xmlns="http://www.w3.org/2000/svg" viewBox="0 0 312.29 360.28"><defs><style>.cls-1{fill:#af785a;}.cls-2{fill:#e85b5b;}.cls-3{fill:#82c45f;}</style></defs><g id="Layer_2" data-name="Layer 2"><g id="Layer_2-2" data-name="Layer 2"><polygon class="cls-1" points="137.57 49.83 143.57 68.83 137.57 71.77 126.57 55.83 137.57 49.83"/><path class="cls-2" d="M140.57,63.83c7.13-.91,44.6-5.92,57,2a20.84,20.84,0,0,0,7,3c7.1,1.55,13.15-1.28,15-2,13.32-5.26,36.53,8.65,47,17,4.4,3.51,18.53,15.6,28,44,16.19,48.61,1.8,94.23-10,130-6.38,19.31-29.65,89.86-60,91-5.4.2-16.62-1.58-32,3-12.29,3.65-11.21,6.6-19,8-20.67,3.7-30.16-16.72-51-13-9.85,1.75-10.29,6.77-19,7-14.51.37-25.95-13.2-33-22-31.53-39.35-47.3-59-56-85-9.82-29.32-28.16-84.07,2-131,15.86-24.69,43-43.86,71-50C107,61.56,105.55,68.26,140.57,63.83Z"/><path class="cls-3" d="M137.57,51.83h0c22.78-10.41,34-13.47,40-14a11.5,11.5,0,0,0,6-2c5.3-3.87,2.4-10.18,6-16,4.16-6.75,11.69-4.18,29-12,9.83-4.45,8.32-5.7,13-7,17.76-5,37.63,13.54,51,26,11.1,10.34,21.45,20.24,26,37,1.85,6.85,6.09,17.36,2,21-4.95,4.39-16.71-14.17-41-18-11.14-1.76-13.21,1.33-23-2-12.19-4.15-13.22-10.38-25-13-8.61-1.92-9.75,1-21-1-12-2.17-11.21-5.6-19-6-9.5-.49-12.55,4.52-31,10-5.1,1.51-9.33,2.45-12,3"/></g></g></svg>