<svg id="Layer_2" data-name="Layer 2" xmlns="http://www.w3.org/2000/svg" viewBox="0 0 803.2 216.17"><defs><style>.cls-1,.cls-2{fill:#264874;}.cls-2{font-size:66px;font-family:MyriadPro-Regular, Myriad Pro;}.cls-3{letter-spacing:-0.04em;}</style></defs><path class="cls-1" d="M697.5,434.5c20.93-9.5,73.78,48.62,103,106,.84,1.65,1.52,3,2,4,1.22,4.55-.86,8.83-2,11-9.51,18.11-17,25-17,25-26.77,26.77-81.43,77.41-89,68-2.91-3.62,43.19-33,55-71,1.93-6.21,3.49-14.37,0-22-3.31-7.24-9.92-10.59-23-17-35.82-17.55-41.61-19.92-45-27-.84-1.75-2.58-6,1-27C687.81,453.29,690.47,437.69,697.5,434.5Z" transform="translate(-583.05 -433.47)"/><path class="cls-1" d="M688.5,434.5c2.83,4.05-30.59,40.9-51,68a26.55,26.55,0,0,0-5,11c-.29,1.54-1.75,10,3,17,3.5,5.14,8.8,7.15,11,8,27.2,10.49,44.4,17.11,52,28,5,7.13,4.32,16.76,3,36-.13,1.94-3.29,44.58-15,46-3.08.37-4.34-2.4-15-11-8-6.42-11.63-8.4-18-13-29.89-21.56-53-52.85-62-65-2.9-3.92-6.69-9.25-8-17-2.14-12.74,3.86-23.53,7-29C610.67,478.37,684.66,429,688.5,434.5Z" transform="translate(-583.05 -433.47)"/><text class="cls-2" transform="translate(233.63 129.27)">B<tspan class="cls-3" x="35.77" y="0">L</tspan><tspan x="64.55" y="0">UE RIVER STUDIOS</tspan></text></svg>